<svg width="1920" height="1080" viewBox="0 0 1920 1080" fill="none" xmlns="http://www.w3.org/2000/svg">
<g clip-path="url(#clip0_1_7991)">
<rect width="1920" height="1080" fill="white"/>
<rect width="1920" height="1080" fill="url(#paint0_linear_1_7991)"/>
<path d="M1296.58 585.843L1305.77 643.585H1242.57L1253.9 585.843H1296.58Z" fill="#262626"/>
<path opacity="0.2" d="M1296.58 585.843L1305.77 643.585H1242.57L1253.9 585.843H1296.58Z" fill="white"/>
<path d="M1275.78 586.027C1275.75 586.027 1275.71 586.024 1275.68 586.018C1275.52 585.992 1275.38 585.905 1275.29 585.776C1275.2 585.648 1275.16 585.487 1275.19 585.331L1292.59 480.318C1292.62 480.164 1292.71 480.029 1292.84 479.939C1292.97 479.85 1293.12 479.814 1293.28 479.839C1293.43 479.865 1293.57 479.95 1293.66 480.076C1293.75 480.201 1293.79 480.359 1293.77 480.513L1276.37 585.526C1276.35 585.666 1276.27 585.792 1276.17 585.884C1276.06 585.976 1275.92 586.026 1275.78 586.027Z" fill="#494949"/>
<path d="M1279.88 562.226C1279.74 562.226 1279.61 562.179 1279.5 562.092C1279.4 562.006 1279.32 561.885 1279.29 561.751C1279.27 561.616 1279.29 561.476 1279.35 561.354C1279.41 561.232 1279.51 561.135 1279.64 561.08L1322.13 542.502C1322.28 542.444 1322.44 542.445 1322.58 542.504C1322.73 542.563 1322.84 542.675 1322.9 542.818C1322.97 542.96 1322.97 543.121 1322.92 543.267C1322.86 543.413 1322.75 543.531 1322.61 543.598L1280.12 562.176C1280.04 562.209 1279.96 562.226 1279.88 562.226Z" fill="#494949"/>
<path d="M1281.99 544.244C1281.91 544.227 1281.83 544.193 1281.76 544.146L1253.1 523.669C1253.03 523.625 1252.97 523.568 1252.93 523.501C1252.88 523.434 1252.85 523.358 1252.84 523.279C1252.82 523.2 1252.82 523.118 1252.84 523.039C1252.86 522.96 1252.89 522.886 1252.94 522.82C1252.98 522.754 1253.04 522.699 1253.11 522.656C1253.18 522.614 1253.26 522.587 1253.34 522.575C1253.42 522.563 1253.5 522.568 1253.58 522.588C1253.66 522.609 1253.73 522.645 1253.79 522.695L1282.46 543.172C1282.57 543.253 1282.65 543.369 1282.68 543.501C1282.72 543.633 1282.71 543.774 1282.65 543.9C1282.6 544.025 1282.5 544.128 1282.38 544.19C1282.26 544.253 1282.12 544.271 1281.98 544.243L1281.99 544.244Z" fill="#494949"/>
<path d="M1334.49 575.86C1346.91 569.702 1351.19 553.044 1344.06 538.653C1336.92 524.263 1321.07 517.589 1308.65 523.747C1296.23 529.905 1291.95 546.563 1299.08 560.954C1306.22 575.344 1322.07 582.018 1334.49 575.86Z" fill="#0CBC8B"/>
<path opacity="0.5" d="M1337.6 571.697C1325.19 577.854 1309.33 571.179 1302.2 556.79C1297.36 547.029 1297.77 536.231 1302.42 528.366C1304.2 526.463 1306.31 524.896 1308.65 523.739C1321.07 517.581 1336.92 524.255 1344.06 538.645C1348.9 548.406 1348.49 559.21 1343.84 567.07C1342.05 568.972 1339.94 570.539 1337.6 571.697Z" fill="white"/>
<path d="M1317.98 491.704C1323.13 478.936 1316.48 464.214 1303.11 458.822C1289.75 453.429 1274.74 459.407 1269.59 472.175C1264.43 484.942 1271.09 499.664 1284.45 505.057C1297.82 510.449 1312.83 504.471 1317.98 491.704Z" fill="#0CBC8B"/>
<path opacity="0.5" d="M1317.98 491.698C1317.78 492.181 1317.57 492.65 1317.35 493.114C1310.75 502.419 1298.01 506.213 1286.5 501.566C1273.14 496.173 1266.48 481.451 1271.63 468.683C1271.83 468.201 1272.04 467.731 1272.26 467.267C1278.86 457.962 1291.6 454.168 1303.11 458.816C1316.47 464.208 1323.13 478.931 1317.98 491.698Z" fill="white"/>
<path d="M1267.56 531.936C1274.27 519.552 1271.05 504.817 1260.36 499.024C1249.67 493.231 1235.57 498.574 1228.86 510.958C1222.14 523.342 1225.37 538.077 1236.05 543.87C1246.74 549.663 1260.84 544.32 1267.56 531.936Z" fill="#0CBC8B"/>
<path opacity="0.5" d="M1233.46 540.127C1244.14 545.921 1258.25 540.576 1264.96 528.193C1269.51 519.795 1269.5 510.317 1265.68 503.276C1264.17 501.552 1262.37 500.111 1260.36 499.022C1249.68 493.229 1235.57 498.573 1228.86 510.956C1224.3 519.359 1224.32 528.837 1228.14 535.874C1229.65 537.598 1231.45 539.038 1233.46 540.127Z" fill="white"/>
<path d="M952.577 106.417C957.521 91.9774 953.896 77.6579 944.48 74.4336C935.064 71.2092 923.423 80.301 918.478 94.7405C913.534 109.18 917.158 123.5 926.574 126.724C935.99 129.948 947.632 120.857 952.577 106.417Z" fill="#3A8F38"/>
<path d="M919.049 94.7044C925.755 91.6813 927.445 80.9216 922.825 70.6718C918.204 60.4221 909.022 54.5637 902.316 57.5868C895.61 60.6099 893.919 71.3697 898.54 81.6194C903.16 91.8692 912.343 97.7275 919.049 94.7044Z" fill="#3A8F38"/>
<path d="M906.364 118.526H942.235C945.39 118.526 948.416 119.78 950.647 122.01C952.878 124.241 954.131 127.267 954.131 130.422V146.742C954.131 149.897 952.878 152.923 950.647 155.154C948.416 157.385 945.39 158.638 942.235 158.638H906.364V118.526Z" fill="#25A1FA"/>
<path d="M949.549 90.8341H949.504C949.432 90.8266 949.363 90.8014 949.302 90.7608C949.242 90.7202 949.193 90.6654 949.159 90.6013C949.026 90.2804 949.017 89.9214 949.133 89.5942C949.339 88.7272 949.288 87.819 948.986 86.9808C948.964 86.9261 948.954 86.8678 948.955 86.8091C948.957 86.7505 948.97 86.6927 948.994 86.6391C949.018 86.5856 949.052 86.5374 949.095 86.4972C949.138 86.4571 949.188 86.4259 949.243 86.4054C949.298 86.3849 949.357 86.3756 949.415 86.3779C949.474 86.3803 949.532 86.3943 949.585 86.4191C949.638 86.4439 949.686 86.479 949.725 86.5224C949.765 86.5658 949.795 86.6167 949.815 86.6719C950.105 87.4716 950.205 88.328 950.106 89.1729C950.62 88.7058 951.193 88.3093 951.812 87.9941C951.864 87.9644 951.922 87.9455 951.982 87.9387C952.041 87.932 952.102 87.9374 952.159 87.9548C952.217 87.9721 952.27 88.001 952.316 88.0396C952.362 88.0782 952.4 88.1258 952.427 88.1795C952.454 88.2331 952.47 88.2917 952.473 88.3516C952.477 88.4116 952.468 88.4717 952.448 88.5282C952.428 88.5847 952.396 88.6365 952.355 88.6804C952.314 88.7243 952.265 88.7594 952.21 88.7835C951.315 89.2485 950.526 89.8926 949.891 90.6756C949.849 90.7255 949.797 90.7656 949.738 90.793C949.679 90.8204 949.614 90.8344 949.549 90.8341Z" fill="#292A2E"/>
<path d="M936.135 80.2973C936.077 80.2976 936.02 80.2861 935.967 80.2637C935.66 80.1017 935.427 79.8294 935.313 79.5017C934.938 78.7058 934.334 78.0403 933.577 77.591C933.476 77.5324 933.401 77.4357 933.371 77.3222C933.34 77.2088 933.356 77.0879 933.415 76.9862C933.474 76.8844 933.57 76.8101 933.684 76.7797C933.797 76.7492 933.918 76.7651 934.02 76.8238C934.742 77.2488 935.352 77.8401 935.799 78.5486C935.903 77.8518 936.098 77.1715 936.377 76.5246C936.4 76.4696 936.432 76.4196 936.474 76.3775C936.516 76.3355 936.566 76.3022 936.62 76.2797C936.675 76.2573 936.734 76.246 936.793 76.2467C936.853 76.2474 936.911 76.2599 936.965 76.2837C937.02 76.3074 937.069 76.3417 937.109 76.3847C937.15 76.4277 937.182 76.4785 937.203 76.534C937.223 76.5895 937.233 76.6486 937.23 76.7078C937.228 76.767 937.214 76.8251 937.188 76.8786C936.788 77.8216 936.581 78.835 936.579 79.8593C936.579 79.9766 936.533 80.0892 936.45 80.1722C936.367 80.2551 936.254 80.3018 936.137 80.3018L936.135 80.2973Z" fill="#292A2E"/>
<path d="M924.824 94.5686C924.766 94.5687 924.709 94.5576 924.656 94.5358C924.351 94.3755 924.118 94.1053 924.005 93.7801C923.629 92.9816 923.023 92.3138 922.265 91.8623C922.163 91.8036 922.089 91.7069 922.059 91.5935C922.028 91.48 922.044 91.3591 922.103 91.2574C922.162 91.1556 922.258 91.0814 922.372 91.0509C922.485 91.0205 922.606 91.0363 922.708 91.095C923.43 91.5203 924.04 92.112 924.487 92.8207C924.591 92.1236 924.785 91.443 925.064 90.7959C925.086 90.7409 925.119 90.6908 925.161 90.6488C925.203 90.6067 925.253 90.5735 925.307 90.551C925.362 90.5285 925.421 90.5173 925.48 90.5179C925.539 90.5186 925.598 90.5312 925.652 90.5549C925.707 90.5786 925.756 90.613 925.796 90.656C925.837 90.699 925.869 90.7497 925.89 90.8052C925.91 90.8607 925.92 90.9198 925.917 90.979C925.915 91.0382 925.9 91.0963 925.875 91.1499C925.476 92.0925 925.269 93.1058 925.268 94.1296C925.268 94.247 925.221 94.3595 925.138 94.4425C925.055 94.5255 924.943 94.5721 924.825 94.5721L924.824 94.5686Z" fill="#292A2E"/>
<path d="M936.832 92.411C936.774 92.4107 936.718 92.3996 936.664 92.3783C936.358 92.2168 936.124 91.9447 936.011 91.6172C935.636 90.8207 935.031 90.1545 934.274 89.7038C934.172 89.6451 934.098 89.5484 934.068 89.435C934.037 89.3216 934.053 89.2007 934.112 89.0989C934.17 88.9972 934.267 88.9229 934.38 88.8924C934.494 88.862 934.615 88.8778 934.717 88.9365C935.437 89.3623 936.046 89.9536 936.494 90.6614C936.598 89.9645 936.792 89.2842 937.072 88.6374C937.094 88.5824 937.126 88.5324 937.168 88.4903C937.21 88.4482 937.26 88.415 937.314 88.3925C937.369 88.37 937.428 88.3588 937.487 88.3595C937.547 88.3601 937.605 88.3727 937.659 88.3964C937.714 88.4201 937.763 88.4545 937.803 88.4975C937.844 88.5405 937.876 88.5913 937.897 88.6468C937.917 88.7022 937.927 88.7613 937.924 88.8205C937.922 88.8797 937.908 88.9378 937.882 88.9914C937.482 89.9339 937.275 90.9472 937.274 91.9712C937.274 92.0885 937.228 92.2011 937.145 92.284C937.062 92.367 936.949 92.4136 936.832 92.4136V92.411Z" fill="#292A2E"/>
<path d="M944.469 104.887C944.399 104.886 944.33 104.87 944.267 104.838C944.202 104.805 944.147 104.756 944.106 104.697C944.064 104.637 944.038 104.569 944.03 104.496C944.02 104.151 944.139 103.815 944.365 103.553C944.868 102.819 945.145 101.954 945.162 101.065C945.162 100.947 945.208 100.835 945.291 100.752C945.374 100.669 945.487 100.622 945.604 100.622C945.722 100.622 945.834 100.669 945.917 100.752C946 100.835 946.047 100.947 946.047 101.065C946.032 101.92 945.817 102.76 945.417 103.516C946.066 103.272 946.746 103.116 947.438 103.055C947.555 103.046 947.67 103.084 947.76 103.159C947.849 103.234 947.905 103.342 947.917 103.458C947.921 103.516 947.915 103.575 947.897 103.63C947.879 103.685 947.851 103.737 947.813 103.781C947.776 103.826 947.73 103.862 947.678 103.889C947.627 103.915 947.57 103.932 947.512 103.936C946.517 104.031 945.553 104.333 944.68 104.821C944.617 104.861 944.544 104.884 944.469 104.887Z" fill="#292A2E"/>
<path d="M925.841 112.575C925.778 112.575 925.716 112.561 925.659 112.536C925.358 112.363 925.133 112.083 925.03 111.752C924.679 110.946 924.095 110.262 923.353 109.789C923.253 109.727 923.181 109.628 923.154 109.514C923.127 109.4 923.146 109.279 923.208 109.179C923.27 109.079 923.369 109.008 923.483 108.981C923.597 108.954 923.717 108.973 923.817 109.035C924.525 109.483 925.117 110.093 925.542 110.815C925.668 110.122 925.883 109.448 926.181 108.81C926.203 108.753 926.237 108.702 926.28 108.659C926.323 108.616 926.374 108.582 926.431 108.56C926.487 108.538 926.548 108.527 926.609 108.529C926.669 108.531 926.729 108.546 926.784 108.572C926.839 108.598 926.888 108.636 926.927 108.682C926.967 108.728 926.997 108.781 927.015 108.839C927.033 108.897 927.04 108.958 927.033 109.019C927.027 109.079 927.008 109.138 926.978 109.19C926.549 110.12 926.312 111.126 926.279 112.15C926.275 112.264 926.226 112.372 926.144 112.451C926.061 112.53 925.951 112.575 925.837 112.575H925.841Z" fill="#292A2E"/>
<path d="M936.922 116.685C936.907 116.686 936.892 116.686 936.877 116.685C936.805 116.677 936.735 116.652 936.675 116.611C936.614 116.571 936.564 116.516 936.53 116.451C936.399 116.132 936.39 115.775 936.505 115.449C936.711 114.581 936.66 113.671 936.358 112.831C936.32 112.722 936.327 112.603 936.376 112.499C936.425 112.394 936.513 112.313 936.621 112.273C936.729 112.232 936.848 112.236 936.954 112.282C937.059 112.328 937.143 112.414 937.186 112.521C937.477 113.321 937.577 114.178 937.478 115.024C937.991 114.556 938.565 114.159 939.184 113.844C939.288 113.797 939.406 113.792 939.513 113.83C939.621 113.868 939.709 113.946 939.761 114.048C939.812 114.15 939.822 114.267 939.789 114.376C939.756 114.486 939.681 114.578 939.582 114.633C938.687 115.099 937.898 115.743 937.263 116.526C937.221 116.576 937.169 116.616 937.11 116.643C937.052 116.671 936.987 116.685 936.922 116.685Z" fill="#292A2E"/>
<path d="M917.048 74.4587H917.003C916.93 74.4514 916.861 74.4263 916.801 74.3857C916.74 74.3451 916.691 74.2902 916.657 74.226C916.524 73.905 916.515 73.546 916.632 73.2189C916.838 72.3518 916.786 71.4436 916.483 70.6055C916.444 70.496 916.45 70.3756 916.499 70.2703C916.548 70.165 916.637 70.0832 916.746 70.0427C916.855 70.0021 916.975 70.006 917.081 70.0536C917.187 70.1011 917.27 70.1884 917.312 70.2966C917.603 71.0961 917.703 71.9526 917.604 72.7976C918.118 72.3305 918.691 71.934 919.31 71.6188C919.414 71.5718 919.532 71.5668 919.639 71.6048C919.747 71.6428 919.836 71.7209 919.887 71.8228C919.939 71.9246 919.949 72.0424 919.915 72.1514C919.882 72.2605 919.808 72.3525 919.708 72.4082C918.813 72.8732 918.024 73.5173 917.389 74.3003C917.347 74.3501 917.295 74.3901 917.236 74.4175C917.177 74.4449 917.113 74.459 917.048 74.4587Z" fill="#292A2E"/>
<path d="M907.746 64.5523C907.688 64.5525 907.631 64.5413 907.577 64.5196C907.271 64.3584 907.038 64.0865 906.925 63.7594C906.55 62.9625 905.944 62.2962 905.187 61.846C905.137 61.817 905.093 61.7783 905.057 61.7322C905.022 61.686 904.996 61.6334 904.981 61.5772C904.966 61.521 904.962 61.4625 904.969 61.4048C904.977 61.3471 904.996 61.2915 905.025 61.2411C905.054 61.1908 905.092 61.1466 905.139 61.1112C905.185 61.0757 905.237 61.0497 905.294 61.0347C905.35 61.0196 905.408 61.0157 905.466 61.0233C905.524 61.0308 905.579 61.0497 905.63 61.0787C906.351 61.5045 906.96 62.0957 907.408 62.8036C907.512 62.1069 907.706 61.4265 907.985 60.7796C908.008 60.7263 908.041 60.6781 908.083 60.6377C908.125 60.5974 908.175 60.5657 908.229 60.5445C908.283 60.5233 908.341 60.513 908.399 60.5142C908.457 60.5153 908.514 60.5279 908.568 60.5513C908.675 60.5984 908.759 60.6862 908.802 60.7954C908.845 60.9046 908.842 61.0262 908.795 61.1336C908.396 62.0763 908.189 63.0895 908.188 64.1134C908.188 64.2307 908.141 64.3433 908.059 64.4263C907.976 64.5092 907.863 64.5559 907.746 64.5559V64.5523Z" fill="#292A2E"/>
<path d="M906.253 75.0902C906.195 75.0901 906.138 75.0786 906.085 75.0566C905.779 74.8941 905.545 74.6215 905.432 74.2937C905.057 73.4981 904.452 72.8328 903.696 72.383C903.595 72.3243 903.52 72.2276 903.49 72.1142C903.459 72.0008 903.475 71.8799 903.534 71.7781C903.593 71.6764 903.689 71.6021 903.803 71.5716C903.916 71.5412 904.037 71.557 904.139 71.6157C904.861 72.0407 905.471 72.6321 905.918 73.3406C906.022 72.6438 906.216 71.9635 906.496 71.3166C906.518 71.2616 906.55 71.2116 906.592 71.1695C906.634 71.1274 906.684 71.0942 906.738 71.0717C906.793 71.0492 906.852 71.038 906.911 71.0387C906.971 71.0393 907.029 71.0519 907.083 71.0756C907.138 71.0993 907.187 71.1337 907.227 71.1767C907.268 71.2197 907.3 71.2705 907.321 71.3259C907.342 71.3814 907.351 71.4405 907.348 71.4997C907.346 71.5589 907.332 71.617 907.306 71.6706C906.906 72.6138 906.699 73.6276 906.697 74.6521C906.697 74.7244 906.678 74.7954 906.644 74.859C906.61 74.9225 906.56 74.9767 906.5 75.0167C906.427 75.0647 906.341 75.0902 906.253 75.0902Z" fill="#292A2E"/>
<path d="M913.892 87.5683C913.822 87.5683 913.752 87.5516 913.69 87.5196C913.625 87.4865 913.57 87.4379 913.528 87.3782C913.486 87.3184 913.46 87.2494 913.452 87.1771C913.444 86.8326 913.563 86.4973 913.787 86.2355C914.29 85.5014 914.567 84.6359 914.584 83.746C914.585 83.6294 914.632 83.518 914.715 83.436C914.798 83.354 914.91 83.3079 915.026 83.308C915.144 83.308 915.256 83.3546 915.339 83.4376C915.422 83.5205 915.469 83.6331 915.469 83.7504C915.454 84.6052 915.238 85.4444 914.839 86.2001C915.489 85.9551 916.169 85.8002 916.861 85.7399C916.977 85.7331 917.091 85.7713 917.18 85.8466C917.269 85.9219 917.326 86.0285 917.338 86.1443C917.347 86.2612 917.31 86.3771 917.234 86.4665C917.158 86.556 917.05 86.6117 916.933 86.6214C915.938 86.7156 914.973 87.0171 914.101 87.5063C914.038 87.5445 913.966 87.5658 913.892 87.5683Z" fill="#292A2E"/>
<path d="M904.637 84.8187C904.325 84.7909 904.03 84.6605 903.799 84.4479C903.107 83.9196 902.27 83.6154 901.4 83.5762C901.342 83.5744 901.285 83.5611 901.232 83.5372C901.179 83.5132 901.131 83.4791 901.091 83.4367C901.052 83.3943 901.021 83.3444 901 83.29C900.98 83.2356 900.97 83.1777 900.972 83.1196C900.973 83.0613 900.986 83.0038 901.009 82.9505C901.033 82.8971 901.067 82.8491 901.109 82.8092C901.152 82.7692 901.202 82.7382 901.256 82.718C901.311 82.6977 901.369 82.6886 901.428 82.6912C902.261 82.7257 903.074 82.9633 903.795 83.3833C903.569 82.708 903.433 82.0062 903.389 81.2956C903.382 81.1785 903.422 81.0636 903.501 80.9761C903.579 80.8887 903.688 80.8358 903.806 80.8292C903.864 80.8228 903.924 80.8287 903.98 80.8467C904.036 80.8647 904.088 80.8943 904.132 80.9336C904.176 80.9729 904.211 81.0211 904.235 81.0749C904.259 81.1287 904.272 81.187 904.272 81.246C904.342 82.2667 904.615 83.263 905.076 84.1762C905.108 84.2402 905.124 84.3109 905.123 84.3823C905.121 84.4536 905.103 84.5236 905.068 84.5862C905.034 84.6488 904.985 84.7022 904.925 84.7418C904.866 84.7813 904.798 84.8059 904.727 84.8134C904.697 84.8169 904.667 84.8187 904.637 84.8187Z" fill="#292A2E"/>
<path d="M784.555 157.738H883.24V129.418H784.555V157.738Z" fill="#283B7C"/>
<path opacity="0.05" d="M784.555 157.738H883.24V129.418H784.555V157.738Z" fill="#292A2E"/>
<path d="M797.807 157.738H810.738V129.418H797.807V157.738Z" fill="#3A9BB0"/>
<path d="M816.863 151.583H870.63V134.801H816.863V151.583Z" fill="white"/>
<path d="M761.026 129.444H858.356V101.125L761.026 101.125V129.444Z" fill="#6EA864"/>
<path d="M832.532 129.444H845.285V101.125H832.532V129.444Z" fill="#497C40"/>
<path d="M773.462 123.29H826.49V106.508H773.462V123.29Z" fill="white"/>
<path d="M713.501 157.737L777.614 82.7148L756.085 64.3163L691.972 139.338L713.501 157.737Z" fill="#AC9EFF"/>
<path d="M722.11 147.662L730.511 137.831L708.982 119.433L700.581 129.264L722.11 147.662Z" fill="#2843AE"/>
<path d="M729.813 129.177L764.743 88.3031L751.985 77.4002L717.055 118.274L729.813 129.177Z" fill="white"/>
<path d="M964.414 157.221H679.473V168.417H964.414V157.221Z" fill="#B48B3C"/>
<path d="M1331.42 -6.10352e-05H1033.02V298.399H1331.42V-6.10352e-05Z" fill="#B5E1E3"/>
<path d="M1334.84 -6.10352e-05H1331.42V298.399H1334.84V-6.10352e-05Z" fill="#F4F4F4"/>
<path opacity="0.05" d="M1334.84 -6.10352e-05H1331.42V298.399H1334.84V-6.10352e-05Z" fill="black"/>
<path opacity="0.05" d="M1259.13 205.622V127.551H1195.18V172.908H1096.12V253.22H1054.02V298.4H1096.12H1104.23H1317.07V205.622H1259.13Z" fill="black"/>
<path opacity="0.34" d="M1249.96 136.027H1203.39V144.504H1249.96V136.027Z" fill="#FFFFFA"/>
<path opacity="0.34" d="M1249.96 153.593H1203.39V162.07H1249.96V153.593Z" fill="#FFFFFA"/>
<path opacity="0.34" d="M1249.96 171.159H1203.39V179.635H1249.96V171.159Z" fill="#FFFFFA"/>
<path opacity="0.34" d="M1308.81 213.85H1300.22V222.326H1308.81V213.85Z" fill="#FFFFFA"/>
<path opacity="0.34" d="M1308.81 231.416H1300.22V239.892H1308.81V231.416Z" fill="#FFFFFA"/>
<path opacity="0.34" d="M1308.81 248.981H1300.22V257.457H1308.81V248.981Z" fill="#FFFFFA"/>
<path opacity="0.34" d="M1292.93 213.85H1284.35V222.326H1292.93V213.85Z" fill="#FFFFFA"/>
<path opacity="0.34" d="M1292.93 231.416H1284.35V239.892H1292.93V231.416Z" fill="#FFFFFA"/>
<path opacity="0.34" d="M1292.93 248.981H1284.35V257.457H1292.93V248.981Z" fill="#FFFFFA"/>
<path opacity="0.34" d="M1277.48 213.85H1268.89V222.326H1277.48V213.85Z" fill="#FFFFFA"/>
<path opacity="0.34" d="M1277.48 231.416H1268.89V239.892H1277.48V231.416Z" fill="#FFFFFA"/>
<path opacity="0.34" d="M1277.48 248.981H1268.89V257.457H1277.48V248.981Z" fill="#FFFFFA"/>
<path d="M1331.42 147.526H1271.38V-6.10352e-05H1266.41V147.526H1104.23V-6.10352e-05H1099.26V147.526H1033.02V152.491H1099.26V298.399H1104.23V152.491H1266.41V298.399H1271.38V152.491H1331.42V147.526Z" fill="white"/>
<path d="M1343.31 298.039H1021.13V307.962H1343.31V298.039Z" fill="#F4F4F4"/>
<path opacity="0.1" d="M1343.31 298.039H1021.13V307.962H1343.31V298.039Z" fill="black"/>
<path opacity="0.1" d="M1347.96 298.039H1343.31V307.962H1347.96V298.039Z" fill="black"/>
<path opacity="0.1" d="M1347.96 298.039H1343.31V307.962H1347.96V298.039Z" fill="black"/>
<path d="M1335.3 644.766H659.782C659.707 644.768 659.632 644.756 659.561 644.729C659.491 644.702 659.427 644.661 659.373 644.608C659.318 644.556 659.275 644.493 659.246 644.424C659.217 644.354 659.201 644.28 659.201 644.204C659.201 644.129 659.217 644.055 659.246 643.985C659.275 643.916 659.318 643.853 659.373 643.801C659.427 643.748 659.491 643.707 659.561 643.68C659.632 643.653 659.707 643.641 659.782 643.643H1335.3C1335.38 643.641 1335.45 643.653 1335.52 643.68C1335.59 643.707 1335.66 643.748 1335.71 643.801C1335.77 643.853 1335.81 643.916 1335.84 643.985C1335.87 644.055 1335.88 644.129 1335.88 644.204C1335.88 644.28 1335.87 644.354 1335.84 644.424C1335.81 644.493 1335.77 644.556 1335.71 644.608C1335.66 644.661 1335.59 644.702 1335.52 644.729C1335.45 644.756 1335.38 644.768 1335.3 644.766Z" fill="#292A2E"/>
<g opacity="0.65">
<path d="M1335.3 644.766H659.782C659.707 644.768 659.632 644.756 659.561 644.729C659.491 644.702 659.427 644.661 659.373 644.608C659.318 644.556 659.275 644.493 659.246 644.424C659.217 644.354 659.201 644.28 659.201 644.204C659.201 644.129 659.217 644.055 659.246 643.985C659.275 643.916 659.318 643.853 659.373 643.801C659.427 643.748 659.491 643.707 659.561 643.68C659.632 643.653 659.707 643.641 659.782 643.643H1335.3C1335.38 643.641 1335.45 643.653 1335.52 643.68C1335.59 643.707 1335.66 643.748 1335.71 643.801C1335.77 643.853 1335.81 643.916 1335.84 643.985C1335.87 644.055 1335.88 644.129 1335.88 644.204C1335.88 644.28 1335.87 644.354 1335.84 644.424C1335.81 644.493 1335.77 644.556 1335.71 644.608C1335.66 644.661 1335.59 644.702 1335.52 644.729C1335.45 644.756 1335.38 644.768 1335.3 644.766Z" fill="#292A2E"/>
</g>
<rect y="643" width="1920" height="437" fill="#D5AF76"/>
<path d="M760.202 393.569V547.336C856.736 548.608 1049.8 547.641 1049.8 533.6C1049.8 516.048 1081.47 437.448 1102.08 406.923C1118.56 382.504 1098.26 371.057 1086.05 368.386H785.003C769.741 368.386 762.11 385.174 760.202 393.569Z" fill="#DC994F"/>
<circle cx="886.497" cy="458.051" r="9.53889" fill="#CB843C"/>
<circle cx="981.887" cy="458.051" r="9.53889" fill="#CB843C"/>
<path d="M1102.08 406.923C1118.56 382.504 1098.26 371.057 1086.05 368.386H961.368C1019.97 505.441 851.677 537.67 760.202 533.6V547.336C856.736 548.608 1049.8 547.641 1049.8 533.6C1049.8 516.048 1081.47 437.448 1102.08 406.923Z" fill="#CB843C"/>
<path d="M760.288 393.569V547.336C663.755 548.608 470.688 547.641 470.688 533.6C470.688 516.048 439.019 437.448 418.415 406.923C401.931 382.504 422.23 371.057 434.44 368.386H735.487C750.75 368.386 758.381 385.174 760.288 393.569Z" fill="#DC994F"/>
<path d="M760.288 393.569V547.336C663.755 548.608 470.688 547.641 470.688 533.6C593.04 557.892 812.104 558.859 709.542 368.386H735.487C750.75 368.386 758.381 385.174 760.288 393.569Z" fill="#CB843C"/>
<circle cx="9.53889" cy="9.53889" r="9.53889" transform="matrix(-1 0 0 1 643.532 448.512)" fill="#CB843C"/>
<circle cx="9.53889" cy="9.53889" r="9.53889" transform="matrix(-1 0 0 1 548.143 448.512)" fill="#CB843C"/>
<path d="M1113.2 620.567L1123.83 699.168C1124.07 701 1122.65 702.629 1120.8 702.629H1112.12C1110.93 702.629 1109.85 701.941 1109.35 700.864L1085.43 649.45C1084.93 648.373 1083.85 647.685 1082.66 647.685H437.519C436.338 647.685 435.263 648.366 434.759 649.434L410.465 700.88C409.961 701.948 408.886 702.629 407.705 702.629H399.427C397.568 702.629 396.141 700.981 396.406 699.141L407.736 620.541C407.952 619.039 409.239 617.924 410.757 617.924H1110.18C1111.71 617.924 1113 619.053 1113.2 620.567Z" fill="#89563D"/>
<path d="M1101.4 405.016C1156.04 429.436 1177.58 446.479 1181.53 451.948C1130.78 451.948 1129.25 638.147 1104.45 637.384C1079.65 636.621 1034.25 606.096 1047.98 531.693C1058.97 472.17 1088.17 422.441 1101.4 405.016Z" fill="#D29049"/>
<path d="M1105.86 638.176H1129.13C1132.82 637.667 1140.49 634.402 1142.49 625.584C1148.71 598.049 1158.23 550.641 1169.19 512.247C1177.97 465.684 1199.34 445.486 1160.8 445.486C1116.79 445.487 1092.12 613.756 1092.12 625.584C1092.12 635.047 1101.28 637.921 1105.86 638.176Z" fill="#E8A660"/>
<path d="M419.694 405.015C365.055 429.435 343.51 446.478 339.568 451.946C390.314 451.946 391.841 638.146 416.642 637.383C441.443 636.619 486.848 606.095 473.112 531.692C462.123 472.169 432.922 422.44 419.694 405.015Z" fill="#D29049"/>
<path d="M415.238 638.175H391.963C388.275 637.666 380.601 634.401 378.609 625.584C372.387 598.048 362.862 550.64 351.9 512.247C343.124 465.683 321.757 445.485 360.294 445.486C404.307 445.486 428.974 613.755 428.974 625.584C428.974 635.046 419.817 637.921 415.238 638.175Z" fill="#E8A660"/>
<rect width="663.907" height="59.5227" rx="12.9729" transform="matrix(-1 0 0 1 1092.24 579.005)" fill="#D08C47"/>
<path d="M760.288 542.101V557.63C760.288 559.318 758.918 560.686 757.229 560.682L431.277 559.922C429.639 559.918 428.281 558.62 428.319 556.983C428.467 550.671 430.023 546.822 432.914 545.809L467.671 534.884C467.967 534.791 468.275 534.743 468.586 534.743H753.787C758.376 535.053 760.034 539.778 760.288 542.101Z" fill="#E8A660"/>
<mask id="path-78-inside-1_1_7991" fill="white">
<path d="M760.288 556.874C760.288 550.973 755.505 546.19 749.605 546.19H439.019C433.118 546.19 428.335 550.973 428.335 556.874V580.53C428.335 586.43 433.118 591.214 439.019 591.214H749.605C755.505 591.214 760.288 586.43 760.288 580.53V556.874Z"/>
</mask>
<path d="M760.288 556.874C760.288 550.973 755.505 546.19 749.605 546.19H439.019C433.118 546.19 428.335 550.973 428.335 556.874V580.53C428.335 586.43 433.118 591.214 439.019 591.214H749.605C755.505 591.214 760.288 586.43 760.288 580.53V556.874Z" fill="#E8A660"/>
<path d="M760.288 556.874C760.288 550.552 755.164 545.427 748.842 545.427H439.782C433.46 545.427 428.335 550.552 428.335 556.874C428.335 551.395 433.118 546.953 439.019 546.953H749.605C755.505 546.953 760.288 551.395 760.288 556.874ZM428.335 591.214H760.288H428.335ZM760.288 591.214V546.19V591.214ZM428.335 546.19V591.214V546.19Z" fill="#FBC58C" mask="url(#path-78-inside-1_1_7991)"/>
<path d="M760.261 542.101V557.63C760.261 559.318 761.632 560.686 763.321 560.682L1089.27 559.922C1090.91 559.918 1092.27 558.62 1092.23 556.983C1092.08 550.671 1090.53 546.822 1087.64 545.809L1052.88 534.884C1052.58 534.791 1052.27 534.743 1051.96 534.743H766.763C762.174 535.053 760.516 539.778 760.261 542.101Z" fill="#E8A660"/>
<mask id="path-81-inside-2_1_7991" fill="white">
<path d="M760.262 556.874C760.262 550.973 765.045 546.19 770.945 546.19H1081.53C1087.43 546.19 1092.21 550.973 1092.21 556.874V580.53C1092.21 586.43 1087.43 591.214 1081.53 591.214H770.945C765.045 591.214 760.262 586.43 760.262 580.53V556.874Z"/>
</mask>
<path d="M760.262 556.874C760.262 550.973 765.045 546.19 770.945 546.19H1081.53C1087.43 546.19 1092.21 550.973 1092.21 556.874V580.53C1092.21 586.43 1087.43 591.214 1081.53 591.214H770.945C765.045 591.214 760.262 586.43 760.262 580.53V556.874Z" fill="#E8A660"/>
<path d="M760.262 556.874C760.262 550.552 765.386 545.427 771.708 545.427H1080.77C1087.09 545.427 1092.21 550.552 1092.21 556.874C1092.21 551.395 1087.43 546.953 1081.53 546.953H770.945C765.045 546.953 760.262 551.395 760.262 556.874ZM1092.21 591.214H760.262H1092.21ZM760.262 591.214V546.19V591.214ZM1092.21 546.19V591.214V546.19Z" fill="#FBC58C" mask="url(#path-81-inside-2_1_7991)"/>
<g filter="url(#filter0_d_1_7991)">
<path d="M1041.07 383.655C1049.61 391.591 1063.45 470.65 1069.3 509.187C1072.35 510.713 1079.53 516.055 1083.8 525.212C1088.07 534.369 1074.39 534.115 1067.01 532.843C1063.2 535.514 925.837 537.803 915.535 542.001C907.294 545.358 908.286 531.953 909.812 524.831C904.089 519.489 883.866 426.008 879.669 413.035C876.311 402.656 894.041 403.623 903.326 405.404C931.561 383.273 1020.08 378.695 1020.46 377.169C1020.84 375.642 1033.82 368.774 1038.78 368.393C1042.75 368.087 1041.96 378.44 1041.07 383.655Z" fill="#002269"/>
<path d="M1057.14 440.882C1059.43 450.039 1063.45 471.031 1069.3 509.568C1072.35 511.094 1079.53 516.436 1083.8 525.593C1088.07 534.751 1074.39 534.496 1067.01 533.224C1063.2 535.895 925.837 538.185 915.535 542.382C907.293 545.74 908.286 532.334 909.812 525.212C904.088 519.87 883.866 426.389 879.669 413.416C876.311 403.038 894.041 404.004 903.325 405.785C918.252 393.187 939.238 391.279 939.619 389.753C969.265 449.886 1030.83 450.166 1057.14 440.882Z" fill="#001E5C"/>
<path d="M909.575 524.632C903.852 519.29 885.058 431.724 881.242 418.751C886.711 414.427 897.717 411.227 898.938 432.289C900.464 458.616 924.791 513.192 915.298 541.802C907.057 545.159 908.049 531.754 909.575 524.632Z" fill="#001644"/>
</g>
<ellipse cx="768.425" cy="840.998" rx="329.75" ry="170.715" fill="#59BAD9"/>
<ellipse cx="768.595" cy="840.998" rx="274.214" ry="141.963" fill="#4388AE"/>
<ellipse cx="768.595" cy="841.65" rx="209.521" ry="108.472" fill="#1E4E87"/>
</g>
<defs>
<filter id="filter0_d_1_7991" x="879.252" y="368.386" width="209.175" height="177.579" filterUnits="userSpaceOnUse" color-interpolation-filters="sRGB">
<feFlood flood-opacity="0" result="BackgroundImageFix"/>
<feColorMatrix in="SourceAlpha" type="matrix" values="0 0 0 0 0 0 0 0 0 0 0 0 0 0 0 0 0 0 127 0" result="hardAlpha"/>
<feOffset dx="3.81556" dy="3.05245"/>
<feComposite in2="hardAlpha" operator="out"/>
<feColorMatrix type="matrix" values="0 0 0 0 0 0 0 0 0 0 0 0 0 0 0 0 0 0 0.25 0"/>
<feBlend mode="normal" in2="BackgroundImageFix" result="effect1_dropShadow_1_7991"/>
<feBlend mode="normal" in="SourceGraphic" in2="effect1_dropShadow_1_7991" result="shape"/>
</filter>
<linearGradient id="paint0_linear_1_7991" x1="960" y1="0" x2="960" y2="1119.08" gradientUnits="userSpaceOnUse">
<stop stop-color="#3F93B7"/>
<stop offset="1" stop-color="#1C5872"/>
</linearGradient>
<clipPath id="clip0_1_7991">
<rect width="1920" height="1080" fill="white"/>
</clipPath>
</defs>
</svg>
